<svg xmlns="http://www.w3.org/2000/svg" viewBox="0 0 24 24" fill="none" stroke="currentColor" stroke-width="2" stroke-linecap="round" stroke-linejoin="round" class="feather feather-mic">
  <path d="M12 1C10.9391 1 9.92172 1.42143 9.17157 2.17157C8.42143 2.92172 8 3.93913 8 5V11C8 12.0609 8.42143 13.0783 9.17157 13.8284C9.92172 14.5786 10.9391 15 12 15C13.0609 15 14.0783 14.5786 14.8284 13.8284C15.5786 13.0783 16 12.0609 16 11V5C16 3.93913 15.5786 2.92172 14.8284 2.17157C14.0783 1.42143 13.0609 1 12 1V1Z" />
  <path d="M19 10V5C19 3.93913 18.5786 2.92172 17.8284 2.17157C17.0783 1.42143 16.0609 1 15 1C15.0007 2.65685 15.0007 4.31371 15 6C15 7.06087 15.4214 8.07828 16.1716 8.82843C16.9217 9.57857 17.9391 10 19 10Z" />
  <path d="M5 10C6.06087 10 7.07828 9.57857 7.82843 8.82843C8.57857 8.07828 9 7.06087 9 6C8.99933 4.34315 8.99933 2.68629 9 1C7.93913 1 6.92172 1.42143 6.17157 2.17157C5.42143 2.92172 5 3.93913 5 5V10Z" />
  <path d="M12 19V23" />
  <path d="M8 23H16" />
</svg>